<svg xmlns="http://www.w3.org/2000/svg" viewBox="0 0 44 38"><defs><style>.a{fill:#009ded;}</style></defs><title>external-link-icon</title><path class="a" d="M34.57,23v7.92a6.89,6.89,0,0,1-2.07,5,6.79,6.79,0,0,1-5,2.09H7.07a6.79,6.79,0,0,1-5-2.09,6.89,6.89,0,0,1-2.07-5V10.29a6.89,6.89,0,0,1,2.07-5,6.79,6.79,0,0,1,5-2.09H24.36a.76.76,0,0,1,.56.22.77.77,0,0,1,.22.57V5.54a.77.77,0,0,1-.22.57.76.76,0,0,1-.56.22H7.07A3.77,3.77,0,0,0,4.3,7.5a3.83,3.83,0,0,0-1.15,2.8V30.88a3.83,3.83,0,0,0,1.15,2.8,3.77,3.77,0,0,0,2.77,1.16H27.5a3.77,3.77,0,0,0,2.77-1.16,3.83,3.83,0,0,0,1.15-2.8V23a.77.77,0,0,1,.22-.57.76.76,0,0,1,.56-.22h1.57a.76.76,0,0,1,.56.22A.77.77,0,0,1,34.57,23ZM44,1.58V14.25a1.53,1.53,0,0,1-.47,1.11,1.53,1.53,0,0,1-2.21,0L37,11,21,27.14a.77.77,0,0,1-1.13,0l-2.8-2.82a.78.78,0,0,1,0-1.14l16-16.13L28.75,2.7a1.53,1.53,0,0,1-.47-1.11A1.53,1.53,0,0,1,28.75.47,1.5,1.5,0,0,1,29.86,0H42.43a1.5,1.5,0,0,1,1.1.47A1.53,1.53,0,0,1,44,1.58Z"/></svg>
